<?xml version="1.0" encoding="UTF-8" standalone="no"?>
<!-- Created with Inkscape (http://www.inkscape.org/) -->

<svg
   xmlns:dc="http://purl.org/dc/elements/1.1/"
   xmlns:cc="http://creativecommons.org/ns#"
   xmlns:rdf="http://www.w3.org/1999/02/22-rdf-syntax-ns#"
   xmlns:svg="http://www.w3.org/2000/svg"
   xmlns="http://www.w3.org/2000/svg"
   xmlns:sodipodi="http://sodipodi.sourceforge.net/DTD/sodipodi-0.dtd"
   xmlns:inkscape="http://www.inkscape.org/namespaces/inkscape"
   width="5in"
   height="5in"
   viewBox="0 0 127 127"
   version="1.1"
   id="svg8"
   inkscape:version="0.92.1 r15371"
   sodipodi:docname="turnTheKeyFaceplate.svg">
  <defs
     id="defs2" />
  <sodipodi:namedview
     id="base"
     pagecolor="#ffffff"
     bordercolor="#666666"
     borderopacity="1.0"
     inkscape:pageopacity="0.0"
     inkscape:pageshadow="2"
     inkscape:zoom="1"
     inkscape:cx="238.78615"
     inkscape:cy="154.01874"
     inkscape:document-units="mm"
     inkscape:current-layer="layer1"
     showgrid="false"
     units="in"
     showguides="false"
     inkscape:window-width="1680"
     inkscape:window-height="987"
     inkscape:window-x="-8"
     inkscape:window-y="-8"
     inkscape:window-maximized="1" />
  <metadata
     id="metadata5">
    <rdf:RDF>
      <cc:Work
         rdf:about="">
        <dc:format>image/svg+xml</dc:format>
        <dc:type
           rdf:resource="http://purl.org/dc/dcmitype/StillImage" />
        <dc:title></dc:title>
      </cc:Work>
    </rdf:RDF>
  </metadata>
  <g
     inkscape:label="Layer 1"
     inkscape:groupmode="layer"
     id="layer1"
     transform="translate(0,-170)">
    <path
       id="path4501"
       style="fill:#999999;stroke:none;stroke-width:0.26458332"
       d="m 81.505273,216.0542 -1.272333,2.21136 -13.445173,23.36824 a 6.5866221,6.5866221 0 0 1 3.215177,6.01849 l 29.498149,-0.0439 a 36.096725,36.096725 0 0 0 -17.99582,-31.5542 z m -21.615181,25.68893 -14.775801,-25.5037 a 36.096725,36.096725 0 0 0 -12.974814,13.05284 36.096725,36.096725 0 0 0 -4.766486,18.42366 l 29.48078,-0.0438 a 6.5866221,6.5866221 0 0 1 0.863971,-3.66314 6.5866221,6.5866221 0 0 1 2.17235,-2.26587 z m 0.331906,11.30224 -14.716216,25.57738 a 36.096725,36.096725 0 0 0 35.753357,0.006 L 66.481937,253.1212 a 6.5866221,6.5866221 0 0 1 -6.259938,-0.0759 z"
       inkscape:connector-curvature="0"
       inkscape:transform-center-x="0.031530687"
       inkscape:transform-center-y="2.5506513" />
    <circle
       id="path22"
       style="fill:#ffffff;stroke:#000000;stroke-width:0.15452963"
       cx="63.5"
       cy="247.29631"
       r="5.5999999" />
    <rect
       style="fill:#ff0000;stroke:#000000;stroke-width:0.26458332"
       id="rect4499"
       width="50"
       height="19"
       x="38.5"
       y="178.31548" />
  </g>
</svg>
